<svg xmlns="http://www.w3.org/2000/svg" version="1.1" xmlns:xlink="http://www.w3.org/1999/xlink" xmlns:svgjs="http://svgjs.dev/svgjs" width="1440" height="560" preserveAspectRatio="none" viewBox="0 0 1440 560"><g mask="url(&quot;#SvgjsMask1000&quot;)" fill="none"><rect width="1440" height="560" x="0" y="0" fill="#0e2a47"></rect><path d="M 0,167 C 57.6,152.6 172.8,93.4 288,95 C 403.2,96.6 460.8,170.4 576,175 C 691.2,179.6 748.8,123 864,118 C 979.2,113 1036.8,169.4 1152,150 C 1267.2,130.6 1382.4,46.8 1440,21L1440 560L0 560z" fill="#184a7e"></path><path d="M 0,450 C 96,417.8 288,273.4 480,289 C 672,304.6 768,528.2 960,528 C 1152,527.8 1344,336 1440,288L1440 560L0 560z" fill="#2264ab"></path></g><defs><mask id="SvgjsMask1000"><rect width="1440" height="560" fill="#ffffff"></rect></mask></defs></svg>